<svg xmlns="http://www.w3.org/2000/svg" width="12" height="20" viewBox="0 0 12 20">
  <path id="Path_502" data-name="Path 502" d="M3.49,10.021a2.9,2.9,0,0,1,.379.248q3.781,3.6,7.549,7.194a1.4,1.4,0,0,1-.576,2.438,1.545,1.545,0,0,1-1.566-.435Q6.548,16.854,3.82,14.254C2.7,13.183,1.566,12.111.443,11.033A1.383,1.383,0,0,1,.45,8.869Q4.863,4.649,9.283.442a1.534,1.534,0,0,1,2.57.536,1.375,1.375,0,0,1-.435,1.494C9.782,4.026,8.16,5.58,6.531,7.134,5.548,8.065,4.572,8.989,3.49,10.021Z" transform="translate(0.075 0.036)" fill="#2d2d2d"/>
</svg>
