<?xml version="1.0" standalone="no"?>
<!DOCTYPE svg PUBLIC "-//W3C//DTD SVG 20010904//EN"
 "http://www.w3.org/TR/2001/REC-SVG-20010904/DTD/svg10.dtd">
<svg version="1.0" xmlns="http://www.w3.org/2000/svg"
 width="257.000000pt" height="257.000000pt" viewBox="0 0 257.000000 257.000000"
 preserveAspectRatio="xMidYMid meet">
<metadata>
Created by potrace 1.11, written by Peter Selinger 2001-2013
</metadata>
<g transform="translate(0.000000,257.000000) scale(0.100000,-0.100000)"
fill="#000000" stroke="none">
<path d="M2327 2524 c-1 -1 -29 -4 -62 -8 -33 -3 -71 -8 -85 -10 -14 -3 -41
-7 -60 -10 -222 -33 -471 -115 -715 -237 -181 -89 -278 -155 -285 -191 -6 -33
-52 -72 -67 -57 -20 20 -50 -1 -156 -104 -215 -210 -350 -415 -426 -647 -56
-172 -75 -363 -50 -495 5 -27 11 -59 13 -70 17 -95 78 -228 143 -317 25 -33
41 -64 36 -68 -32 -31 -222 -116 -303 -135 -128 -31 -260 -52 -283 -47 -4 1
-12 -9 -19 -23 -8 -19 -8 -28 3 -41 11 -13 25 -15 84 -9 93 9 192 30 290 62
86 28 259 108 275 128 8 9 31 2 95 -31 120 -60 263 -80 424 -59 215 28 453
122 616 245 138 103 253 254 328 430 26 61 69 208 68 235 0 2 4 18 9 35 17 59
25 188 21 350 -6 292 -6 434 1 476 15 87 32 142 68 219 44 95 103 172 195 258
82 76 90 90 69 112 -14 13 -35 16 -121 14 -57 -2 -105 -4 -106 -5z"/>
</g>
</svg>
